<svg width="512" height="512" viewBox="0 0 512 512" fill="none" xmlns="http://www.w3.org/2000/svg">
<path d="M249.103 365.862V338.276H273.586C273.668 336.953 273.853 335.639 274.138 334.345C271.272 329.226 269.775 323.453 269.793 317.586C269.765 315.265 270.02 312.949 270.552 310.69H138.759V172.759H331.862V235.517C334.13 235.042 336.442 234.811 338.759 234.828C342.122 234.82 345.468 235.308 348.69 236.276C351.796 233.387 355.456 231.158 359.448 229.724V172.759H414.621V117.586C414.622 113.963 413.909 110.376 412.523 107.028C411.137 103.681 409.105 100.639 406.543 98.0776C403.981 95.5158 400.94 93.4838 397.592 92.0978C394.245 90.7119 390.657 89.999 387.034 90H83.5862C79.9632 89.999 76.3756 90.7119 73.0282 92.0978C69.6809 93.4838 66.6394 95.5158 64.0776 98.0776C61.5158 100.639 59.4838 103.681 58.0978 107.028C56.7119 110.376 55.999 113.963 56 117.586V172.759H111.172V310.69H56V365.862C55.999 369.485 56.7119 373.073 58.0978 376.42C59.4838 379.767 61.5158 382.809 64.0776 385.371C66.6394 387.932 69.6809 389.964 73.0282 391.35C76.3756 392.736 79.9632 393.449 83.5862 393.448H283.31L277.793 365.862H249.103ZM359.448 117.586H387.034V145.172H359.448V117.586ZM304.276 117.586H331.862V145.172H304.276V117.586ZM249.103 117.586H276.69V145.172H249.103V117.586ZM193.931 117.586H221.517V145.172H193.931V117.586ZM138.759 117.586H166.345V145.172H138.759V117.586ZM111.172 365.862H83.5862V338.276H111.172V365.862ZM111.172 145.172H83.5862V117.586H111.172V145.172ZM166.345 365.862H138.759V338.276H166.345V365.862ZM221.517 365.862H193.931V338.276H221.517V365.862ZM214.621 278.505V204.943L269.793 241.724L214.621 278.505ZM456 317.586C456.013 322.044 454.559 326.382 451.862 329.931C447.333 326.153 441.547 324.218 435.656 324.512C429.764 324.806 424.2 327.307 420.069 331.517C417.859 329.284 415.227 327.512 412.326 326.305C409.426 325.097 406.314 324.478 403.172 324.483C400.095 324.486 397.049 325.096 394.208 326.28C391.368 327.463 388.789 329.196 386.621 331.379C384.38 329.158 381.72 327.405 378.796 326.221C375.871 325.037 372.741 324.446 369.586 324.483C363.351 324.491 357.374 326.971 352.965 331.379C350.766 329.181 348.154 327.44 345.278 326.256C342.403 325.072 339.322 324.47 336.213 324.482C333.103 324.495 330.027 325.123 327.162 326.331C324.296 327.538 321.698 329.301 319.517 331.517C315.386 327.307 309.822 324.806 303.931 324.512C298.039 324.218 292.254 326.153 287.724 329.931C285.027 326.382 283.573 322.044 283.586 317.586C283.59 312.65 285.369 307.879 288.597 304.144C291.825 300.41 296.288 297.96 301.172 297.241C299.138 294.714 297.862 291.662 297.491 288.439C297.121 285.215 297.671 281.953 299.079 279.03C300.486 276.107 302.693 273.643 305.444 271.922C308.194 270.202 311.376 269.296 314.621 269.31C315.801 269.323 316.978 269.438 318.138 269.655C318.082 269.549 318.058 269.43 318.069 269.31C318.065 266.592 318.598 263.9 319.636 261.388C320.675 258.877 322.199 256.594 324.121 254.672C326.043 252.75 328.325 251.227 330.837 250.188C333.348 249.15 336.041 248.617 338.759 248.621C344.158 248.617 349.339 250.749 353.172 254.552C354.135 250.877 356.288 247.625 359.295 245.304C362.303 242.983 365.994 241.724 369.793 241.724C373.592 241.724 377.283 242.983 380.291 245.304C383.298 247.625 385.451 250.877 386.414 254.552C390.247 250.749 395.428 248.617 400.828 248.621C403.546 248.617 406.238 249.15 408.749 250.188C411.261 251.227 413.543 252.75 415.465 254.672C417.387 256.594 418.911 258.877 419.95 261.388C420.988 263.9 421.521 266.592 421.517 269.31C421.528 269.43 421.504 269.549 421.448 269.655C422.608 269.438 423.785 269.323 424.965 269.31C428.21 269.296 431.392 270.202 434.142 271.922C436.893 273.643 439.1 276.107 440.507 279.03C441.915 281.953 442.465 285.215 442.095 288.439C441.724 291.662 440.448 294.714 438.414 297.241C443.298 297.96 447.761 300.41 450.989 304.144C454.217 307.879 455.996 312.65 456 317.586ZM379.843 348.434L376.54 462.414H363.046L359.743 348.434C359.704 347.114 359.931 345.8 360.41 344.569C360.889 343.339 361.609 342.216 362.529 341.269C363.45 340.322 364.55 339.569 365.767 339.055C366.983 338.541 368.29 338.276 369.611 338.276H369.975C371.296 338.276 372.603 338.541 373.819 339.055C375.036 339.569 376.136 340.322 377.057 341.269C377.977 342.216 378.698 343.339 379.176 344.569C379.655 345.8 379.882 347.114 379.843 348.434ZM346.278 347.481L354.051 462.414H340.558L326.36 349.379C326.185 347.99 326.308 346.579 326.721 345.241C327.133 343.903 327.825 342.668 328.751 341.618C329.677 340.568 330.816 339.727 332.093 339.151C333.369 338.574 334.753 338.276 336.153 338.276H336.429C338.931 338.276 341.34 339.227 343.168 340.936C344.996 342.645 346.109 344.985 346.278 347.481ZM312.531 346.552L331.562 462.414H329.134C325.995 462.414 322.951 461.344 320.503 459.38C318.055 457.416 316.35 454.676 315.669 451.612L293.152 350.29C292.866 349.001 292.841 347.669 293.079 346.371C293.317 345.073 293.812 343.836 294.536 342.732C295.26 341.629 296.198 340.682 297.294 339.948C298.39 339.213 299.623 338.706 300.918 338.455C302.214 338.205 303.547 338.217 304.838 338.491C306.129 338.765 307.352 339.295 308.434 340.049C309.517 340.804 310.437 341.767 311.141 342.884C311.845 344 312.317 345.25 312.531 346.552ZM413.226 349.379L399.028 462.414H385.535L393.31 347.481C393.479 344.985 394.59 342.645 396.418 340.936C398.246 339.227 400.655 338.276 403.158 338.276H403.434C404.834 338.276 406.218 338.574 407.494 339.151C408.77 339.727 409.909 340.568 410.835 341.618C411.761 342.668 412.453 343.903 412.866 345.241C413.278 346.58 413.401 347.99 413.226 349.379ZM446.434 350.29L423.917 451.612C423.236 454.676 421.531 457.416 419.083 459.38C416.635 461.344 413.591 462.414 410.452 462.414H408.024L427.055 346.552C427.269 345.25 427.742 344.003 428.446 342.887C429.149 341.771 430.07 340.807 431.153 340.053C432.235 339.298 433.458 338.768 434.749 338.495C436.04 338.221 437.373 338.209 438.668 338.459C439.964 338.709 441.196 339.216 442.293 339.951C443.389 340.686 444.327 341.633 445.051 342.736C445.775 343.839 446.27 345.076 446.508 346.374C446.746 347.672 446.72 349.002 446.434 350.29Z" fill="black"/>
</svg>
