<svg viewBox="0 0 100 100" fill="none" xmlns="http://www.w3.org/2000/svg">
<path d="M79.5081 22.5403C75.849 18.843 70.9951 16.9211 65.846 17.1292C60.2645 17.3548 54.6712 20.0618 49.6349 24.9689C46.1903 21.6115 42.5196 19.2941 38.7095 18.0783C35.0967 16.924 31.3738 16.8039 27.9407 17.7326C21.5618 19.464 16.4905 24.7111 14.7075 31.4351C12.5213 39.6821 15.4556 48.6438 22.7596 56.0238L49.1361 82.6781C49.2695 82.8129 49.4463 82.8861 49.6348 82.8861C49.8204 82.8861 50.0001 82.8099 50.1335 82.6781L76.5129 56.0238C82.0045 50.475 85.026 44.1146 85.2494 37.6338C85.4465 31.9239 83.3531 26.4221 79.5113 22.5401L79.5081 22.5403Z" fill="currentColor"/>
</svg>
