<svg viewBox="0 0 100 100" fill="none" xmlns="http://www.w3.org/2000/svg">
<path fill-rule="evenodd" clip-rule="evenodd" d="M36.5001 61.7211L20.2725 80.5715C19.3258 81.6725 17.6634 81.7963 16.5597 80.8495L6.01841 71.7752C4.91749 70.8284 4.79089 69.1633 5.74043 68.0624L31.9643 37.5972C32.9056 36.5018 34.5542 36.3725 35.6551 37.3L54.1395 50.9073L66.5716 38.2027L59.5918 31.9853C58.5074 31.0193 58.4083 29.3569 59.3744 28.2725C59.7404 27.8624 60.2056 27.5954 60.6982 27.4688L91.678 19.1679C93.0817 18.7936 94.5212 19.6275 94.8982 21.0284C94.9835 21.3532 95.0083 21.678 94.9725 21.9917L93.0101 56.0404C92.9303 57.4881 91.6918 58.6 90.2441 58.5202C89.6276 58.4871 89.0689 58.2422 88.6423 57.8596L88.6395 57.8624L80.8945 50.9624L57.7808 74.5853C56.8533 75.5294 55.3891 75.6229 54.3569 74.8633L36.5028 61.7211H36.5001Z" fill="currentColor"/>
</svg>
