<svg  viewBox="0 0 512 512" fill="none" xmlns="http://www.w3.org/2000/svg">
<path d="M311.924 302.648H276.061V321.157H311.924V302.648Z" fill="black"/>
<path d="M196.239 302.648H160.376V321.157H196.239V302.648Z" fill="black"/>
<path d="M365.938 302.648H333.904V321.157H365.938V302.648Z" fill="black"/>
<path d="M254.081 302.648H218.219V321.157H254.081V302.648Z" fill="black"/>
<path d="M424.296 208.4H136.495L406.158 109.259C408.462 108.412 410.335 106.684 411.365 104.456C412.395 102.228 412.498 99.6825 411.651 97.3786L393.887 49.0614C393.467 47.9207 392.828 46.8737 392.003 45.9803C391.179 45.0868 390.188 44.3645 389.084 43.8544C387.981 43.3444 386.788 43.0566 385.574 43.0075C384.359 42.9585 383.147 43.1491 382.007 43.5686L85.061 152.74C82.7574 153.588 80.8845 155.315 79.8545 157.543C78.8244 159.771 78.7215 162.317 79.5683 164.621L97.3322 212.938C97.6957 213.918 98.223 214.828 98.8917 215.63C98.741 216.295 98.6642 216.974 98.6625 217.655V441.85C98.6703 448.783 101.428 455.43 106.33 460.332C111.233 465.235 117.88 467.992 124.813 468H407.4C414.333 467.992 420.98 465.235 425.883 460.332C430.785 455.43 433.543 448.783 433.55 441.85V217.655C433.55 216.44 433.311 215.236 432.846 214.113C432.381 212.991 431.699 211.97 430.84 211.111C429.98 210.251 428.96 209.57 427.837 209.105C426.714 208.64 425.511 208.4 424.296 208.4ZM415.041 259.88H376.678V226.91H415.041V259.88ZM117.172 259.88V226.91H155.534V259.88H117.172ZM202.398 226.91H243.296V259.88H202.398V226.91ZM290.16 226.91H329.814V259.88H290.159L290.16 226.91ZM229.888 154.344L191.503 168.456L180.126 137.511L218.512 123.398L229.888 154.344ZM262.497 107.228L299.716 93.5443L311.093 124.489L273.874 138.173L262.497 107.228ZM391.085 95.0802L355.078 108.317L343.702 77.3725L379.708 64.135L391.085 95.0802ZM136.141 153.682L147.517 184.627L111.512 197.865L100.135 166.92L136.141 153.682ZM407.4 449.49H124.813C122.787 449.488 120.845 448.682 119.413 447.25C117.98 445.818 117.174 443.876 117.172 441.85V278.389H415.041V441.85C415.038 443.876 414.233 445.818 412.8 447.25C411.368 448.682 409.426 449.488 407.4 449.49Z" fill="black"/>
<path d="M371.687 362.21H160.526C157.319 362.21 154.244 363.484 151.977 365.751C149.71 368.018 148.436 371.093 148.436 374.299V407.587C148.436 409.077 148.73 410.552 149.3 411.929C149.87 413.305 150.706 414.556 151.759 415.609C152.813 416.662 154.063 417.498 155.439 418.068C156.816 418.638 158.291 418.932 159.781 418.932H372.431C373.921 418.932 375.396 418.638 376.773 418.068C378.149 417.498 379.4 416.662 380.453 415.609C381.507 414.555 382.342 413.305 382.912 411.928C383.482 410.552 383.776 409.077 383.776 407.587V374.299C383.776 371.093 382.502 368.018 380.235 365.751C377.968 363.484 374.893 362.21 371.687 362.21Z" fill="black"/>
</svg>
