<svg  viewBox="0 0 512 512" fill="none" xmlns="http://www.w3.org/2000/svg">
<path d="M282.403 293.815C282.403 292.368 282.024 290.945 281.304 289.69C280.584 288.434 279.547 287.389 278.298 286.658L227.713 257.071C226.453 256.335 225.021 255.943 223.562 255.937C222.103 255.931 220.667 256.31 219.402 257.036C218.136 257.762 217.084 258.81 216.352 260.073C215.621 261.336 215.236 262.769 215.236 264.228V323.401C215.236 324.861 215.621 326.294 216.352 327.557C217.084 328.82 218.136 329.867 219.401 330.593C220.667 331.32 222.102 331.699 223.562 331.692C225.021 331.686 226.453 331.295 227.713 330.558L278.298 300.972C279.548 300.241 280.584 299.196 281.304 297.94C282.024 296.685 282.403 295.263 282.403 293.815Z" fill="black"/>
<path d="M198.856 201.432H157.401V218.014H198.856V201.432Z" fill="black"/>
<path d="M260.002 201.432H218.547V218.014H260.002V201.432Z" fill="black"/>
<path d="M198.856 362.19H157.401V378.772H198.856V362.19Z" fill="black"/>
<path d="M260.002 362.19H218.547V378.772H260.002V362.19Z" fill="black"/>
<path d="M321.148 362.19H279.693V378.772H321.148V362.19Z" fill="black"/>
<path d="M411.716 80.7373C389.836 62.835 398.257 32.9076 398.619 31.6689C399.15 29.8944 399.072 27.993 398.396 26.2681C397.721 24.5432 396.487 23.0942 394.892 22.1522C393.297 21.2102 391.433 20.8294 389.596 21.0706C387.76 21.3118 386.057 22.1612 384.759 23.4831C342.982 66.0347 358.635 115.481 364.428 129.623C364.813 130.491 364.982 131.438 364.923 132.386C364.864 133.333 364.578 134.252 364.089 135.065C363.049 136.683 361.513 137.921 359.71 138.593C357.908 139.266 355.936 139.336 354.09 138.794C352.245 138.252 350.624 137.127 349.471 135.587C348.318 134.047 347.694 132.176 347.694 130.252C347.694 130.065 347.687 129.879 347.675 129.694C347.057 120.531 351.122 111.372 352.646 108.299C353.854 106.848 354.531 105.029 354.566 103.142C354.6 101.254 353.989 99.4117 352.835 97.9184C351.68 96.4251 350.05 95.3704 348.215 94.9287C346.38 94.487 344.448 94.6848 342.741 95.4892C329.532 101.72 318.296 111.47 310.267 123.67C302.238 135.869 297.727 150.045 297.228 164.641H95.3822C93.1833 164.641 91.0744 165.515 89.5196 167.069C87.9647 168.624 87.0912 170.733 87.0912 172.932V195.732H64.291C62.0921 195.732 59.9832 196.606 58.4284 198.161C56.8735 199.715 56 201.824 56 204.023V438.363C56 440.562 56.8735 442.671 58.4284 444.226C59.9832 445.781 62.0921 446.654 64.291 446.654H352.558C354.757 446.654 356.866 445.781 358.421 444.226C359.976 442.671 360.849 440.562 360.849 438.363V415.563H383.649C385.848 415.563 387.957 414.69 389.512 413.135C391.067 411.58 391.94 409.471 391.94 407.272V245.212C409.739 241.694 425.796 232.187 437.438 218.272C449.08 204.357 455.604 186.874 455.926 168.734C455.936 168.126 455.947 167.516 455.969 166.91C456.258 158.802 455.481 116.546 411.716 80.7373ZM103.673 398.981V378.772H137.71V362.19H103.673V218.014H137.71V201.432H103.673V181.223H298.397C299.654 188.226 301.86 195.025 304.953 201.432H279.693V218.014H315.635C322.941 226.809 332.059 233.923 342.366 238.871C352.674 243.819 363.927 246.484 375.359 246.685V362.19H340.839V378.772H375.359V398.982L103.673 398.981ZM439.397 166.322C439.372 167.033 439.359 167.744 439.347 168.45C439.055 184.776 432.417 200.347 420.838 211.862C409.26 223.376 393.652 229.928 377.324 230.128C377.072 230.131 376.822 230.133 376.571 230.133C364.264 230.136 352.227 226.523 341.956 219.742C331.685 212.962 323.632 203.313 318.798 191.995C313.965 180.677 312.563 168.188 314.767 156.08C316.971 143.971 322.684 132.778 331.197 123.889C331.01 126.102 330.982 128.325 331.114 130.542C331.176 136.022 333.003 141.335 336.324 145.694C339.644 150.053 344.281 153.226 349.546 154.742C354.812 156.258 360.426 156.037 365.556 154.112C370.686 152.186 375.058 148.658 378.026 144.052C379.962 140.994 381.131 137.515 381.436 133.909C381.74 130.302 381.169 126.676 379.773 123.337C375.929 113.954 366.866 85.902 380.914 57.0161C382.67 69.1323 388.001 82.7585 401.215 93.5706C417.376 106.793 428.671 122.443 434.788 140.084C439.573 153.885 439.467 164.36 439.397 166.322Z" fill="black"/>
<path d="M403.191 125.562C401.473 126.024 399.949 127.026 398.845 128.421C397.74 129.815 397.113 131.528 397.057 133.306C396.852 140.121 394.798 146.751 391.113 152.487C385.982 160.45 378.256 166.393 369.245 169.311C360.233 172.229 350.49 171.942 341.666 168.498C340.257 167.946 338.725 167.79 337.234 168.046C335.743 168.303 334.351 168.962 333.208 169.953C332.065 170.944 331.215 172.228 330.75 173.668C330.285 175.107 330.222 176.646 330.569 178.119C333.077 188.452 338.966 197.651 347.3 204.254C355.635 210.857 365.937 214.485 376.57 214.561L377.137 214.558C389.434 214.47 401.207 209.564 409.927 200.893C418.647 192.222 423.62 180.478 423.778 168.181C423.792 167.373 423.808 166.574 423.837 165.771C423.898 164.009 424.106 148.008 412.381 129.186C411.441 127.675 410.04 126.507 408.385 125.855C406.73 125.202 404.909 125.1 403.191 125.562Z" fill="black"/>
</svg>
