<svg  viewBox="0 0 512 512" fill="none" xmlns="http://www.w3.org/2000/svg">
<path d="M268.994 180.52H227.374V197.168H268.994V180.52Z" fill="black"/>
<path d="M207.604 180.52H165.984V197.168H207.604V180.52Z" fill="black"/>
<path d="M330.383 180.52H288.763V197.168H330.383V180.52Z" fill="black"/>
<path d="M207.604 344.004H165.984V360.652H207.604V344.004Z" fill="black"/>
<path d="M268.994 344.004H227.374V360.652H268.994V344.004Z" fill="black"/>
<path d="M288.477 263.401L237.622 233.657C236.358 232.918 234.92 232.525 233.455 232.519C231.99 232.512 230.549 232.893 229.278 233.622C228.007 234.351 226.951 235.402 226.217 236.67C225.482 237.938 225.096 239.377 225.096 240.842V300.33C225.096 301.795 225.482 303.234 226.217 304.502C226.951 305.769 228.007 306.821 229.278 307.55C230.549 308.279 231.99 308.659 233.455 308.653C234.92 308.647 236.358 308.254 237.622 307.515L288.477 277.771C289.731 277.037 290.771 275.988 291.494 274.727C292.217 273.467 292.598 272.039 292.598 270.586C292.598 269.133 292.217 267.705 291.494 266.445C290.771 265.184 289.731 264.135 288.477 263.401Z" fill="black"/>
<path d="M433.046 320.598L433.045 320.597C424.975 312.521 414.13 307.825 402.718 307.466V146.593C402.718 144.386 401.841 142.269 400.28 140.707C398.719 139.146 396.602 138.269 394.394 138.269H371.447V115.324C371.447 113.116 370.57 110.999 369.009 109.438C367.448 107.877 365.331 107 363.123 107H73.324C71.1163 107 68.9991 107.877 67.438 109.438C65.877 110.999 65 113.116 65 115.324V363.307C65 365.515 65.877 367.632 67.438 369.193C68.9991 370.754 71.1163 371.631 73.324 371.631H96.2709V394.578C96.2709 396.786 97.1479 398.903 98.7089 400.464C100.27 402.025 102.387 402.902 104.595 402.902H325.342L364.002 441.562C365.571 443.124 367.695 444 369.908 444C372.121 444 374.245 443.124 375.814 441.562L427.735 389.641C427.893 389.482 428.044 389.318 428.188 389.151L433.046 384.291C441.479 375.838 446.216 364.385 446.216 352.445C446.216 340.504 441.48 329.051 433.046 320.598ZM112.919 360.652H146.215V344.004H112.919V197.168H146.215V180.52H112.919V154.917H386.071V180.519H350.153V197.167H386.07V310.04C380.028 312.18 374.516 315.594 369.908 320.05C361.365 311.799 349.909 307.256 338.032 307.41C326.156 307.565 314.821 312.404 306.496 320.875C298.171 329.346 293.528 340.763 293.579 352.64C293.631 364.517 298.372 375.893 306.77 384.292L308.733 386.254H112.919V360.652Z" fill="black"/>
</svg>
