<svg viewBox="0 0 100 100" fill="none" xmlns="http://www.w3.org/2000/svg">
<path d="M49.9999 74.9751L67.9449 86.328C71.2318 88.4092 75.2524 85.3351 74.3891 81.444L69.6315 60.0888L85.4984 45.6989C88.3967 43.0781 86.8396 38.0985 83.0348 37.784L62.1514 35.9278L53.9774 15.7443C53.6714 14.9366 53.1269 14.2411 52.4161 13.7503C51.7054 13.2596 50.8621 12.9967 49.9984 12.9967C49.1347 12.9967 48.2914 13.2596 47.5806 13.7503C46.8699 14.2411 46.3253 14.9366 46.0194 15.7443L37.8485 35.8785L16.962 37.7346C13.1603 38.0553 11.6032 43.0318 14.4984 45.6526L30.3684 60.0395L25.6139 81.3946C24.7505 85.2858 28.7681 88.363 32.058 86.2817L49.9999 74.9751Z" fill="currentColor"/>
</svg>
