<svg viewBox="0 0 512 512" fill="none" xmlns="http://www.w3.org/2000/svg">
<path d="M449 179.311C449.029 189.274 445.779 198.969 439.752 206.902C429.628 198.457 416.697 194.133 403.53 194.79C390.364 195.447 377.927 201.037 368.694 210.447C363.755 205.456 357.872 201.496 351.39 198.797C344.907 196.098 337.953 194.714 330.93 194.725C324.053 194.731 317.245 196.096 310.896 198.741C304.548 201.386 298.784 205.26 293.937 210.139C288.93 205.174 282.985 201.255 276.449 198.609C269.913 195.963 262.916 194.642 255.865 194.725C241.931 194.743 228.572 200.286 218.718 210.139C213.803 205.225 207.964 201.334 201.538 198.688C195.111 196.043 188.225 194.695 181.275 194.724C174.326 194.753 167.451 196.157 161.047 198.855C154.642 201.554 148.836 205.493 143.961 210.447C134.729 201.037 122.292 195.447 109.125 194.79C95.9585 194.133 83.0271 198.457 72.9037 206.902C66.8762 198.969 63.6263 189.274 63.6555 179.311C63.6648 168.278 67.6395 157.615 74.8547 149.269C82.0699 140.922 92.0449 135.446 102.961 133.84C98.4143 128.191 95.5618 121.37 94.7336 114.166C93.9054 106.963 95.1354 99.6716 98.281 93.1384C101.427 86.6051 106.359 81.097 112.507 77.2521C118.655 73.4073 125.766 71.3833 133.017 71.4145C135.655 71.4419 138.286 71.6998 140.878 72.1852C140.754 71.9485 140.7 71.6809 140.724 71.4145C140.716 65.3397 141.907 59.3231 144.228 53.7091C146.549 48.0952 149.955 42.9944 154.25 38.6989C158.546 34.4034 163.646 30.9975 169.26 28.6766C174.874 26.3556 180.891 25.1651 186.966 25.1732C199.033 25.1643 210.614 29.9297 219.18 38.429C221.332 30.2159 226.144 22.9472 232.865 17.7598C239.587 12.5723 247.837 9.75859 256.328 9.75859C264.818 9.75859 273.069 12.5723 279.79 17.7598C286.511 22.9472 291.324 30.2159 293.475 38.429C302.041 29.9297 313.622 25.1643 325.69 25.1732C331.764 25.1651 337.781 26.3556 343.395 28.6766C349.009 30.9975 354.11 34.4034 358.405 38.6989C362.701 42.9944 366.107 48.0952 368.428 53.7091C370.749 59.3231 371.939 65.3397 371.931 71.4145C371.955 71.6809 371.901 71.9485 371.777 72.1852C374.37 71.6998 377 71.4419 379.638 71.4145C386.889 71.3833 394 73.4073 400.148 77.2521C406.296 81.097 411.229 86.6051 414.374 93.1384C417.52 99.6716 418.75 106.963 417.922 114.166C417.093 121.37 414.241 128.191 409.695 133.84C420.61 135.446 430.585 140.922 437.801 149.269C445.016 157.615 448.991 168.278 449 179.311ZM278.79 248.257L271.407 503H241.248L233.865 248.257C233.779 245.307 234.286 242.369 235.356 239.618C236.426 236.868 238.037 234.359 240.094 232.242C242.15 230.125 244.61 228.442 247.329 227.293C250.048 226.144 252.969 225.552 255.921 225.552H256.735C259.686 225.552 262.608 226.144 265.326 227.293C268.045 228.442 270.505 230.125 272.562 232.242C274.618 234.359 276.229 236.868 277.299 239.618C278.369 242.369 278.876 245.307 278.79 248.257ZM203.771 246.127L221.144 503H190.987L159.255 250.369C158.865 247.263 159.139 244.111 160.061 241.12C160.982 238.129 162.529 235.369 164.599 233.022C166.669 230.675 169.215 228.795 172.067 227.507C174.919 226.219 178.013 225.553 181.142 225.552H181.759C187.352 225.554 192.735 227.679 196.821 231.498C200.907 235.318 203.394 240.546 203.771 246.127ZM128.347 244.049L170.881 503H165.454C158.44 503 151.635 500.608 146.164 496.219C140.693 491.83 136.882 485.707 135.36 478.859L85.0359 252.403C84.3964 249.524 84.3405 246.546 84.8717 243.645C85.4028 240.744 86.5103 237.978 88.1284 235.513C89.7466 233.047 91.8427 230.93 94.2928 229.289C96.7429 227.647 99.4973 226.513 102.393 225.954C105.289 225.395 108.268 225.422 111.153 226.034C114.038 226.645 116.771 227.829 119.191 229.516C121.611 231.202 123.668 233.356 125.241 235.851C126.814 238.346 127.869 241.139 128.347 244.049ZM353.401 250.369L321.668 503H291.511L308.889 246.127C309.266 240.546 311.749 235.317 315.835 231.498C319.921 227.678 325.305 225.553 330.898 225.552H331.515C334.644 225.553 337.737 226.22 340.589 227.508C343.441 228.796 345.987 230.676 348.056 233.023C350.126 235.369 351.673 238.13 352.595 241.121C353.516 244.111 353.791 247.264 353.401 250.369ZM427.619 252.405L377.295 478.859C375.774 485.707 371.963 491.83 366.491 496.219C361.02 500.608 354.215 503 347.201 503H341.774L384.308 244.049C384.786 241.139 385.843 238.354 387.416 235.859C388.989 233.364 391.046 231.21 393.466 229.523C395.886 227.837 398.619 226.653 401.504 226.041C404.389 225.43 407.368 225.402 410.264 225.961C413.16 226.52 415.914 227.654 418.364 229.296C420.814 230.938 422.91 233.055 424.528 235.52C426.147 237.986 427.254 240.751 427.785 243.652C428.316 246.553 428.259 249.525 427.619 252.405Z" fill="#ED254E"/>
</svg>
