<svg width="100%" height="100%" viewBox="0 0 512 512" fill="none" xmlns="http://www.w3.org/2000/svg">
<rect width="100%" height="100%" fill="#000411"/>
<path d="M249.655 365.793V340.414H272.179C272.255 339.197 272.425 337.988 272.687 336.797C270.05 332.088 268.673 326.777 268.69 321.379C268.664 319.244 268.898 317.113 269.388 315.034H148.138V188.138H325.793V245.876C327.879 245.439 330.006 245.226 332.138 245.241C335.232 245.235 338.311 245.684 341.274 246.574C344.132 243.916 347.499 241.866 351.172 240.546V188.138H401.931V137.379C401.932 134.046 401.276 130.746 400.001 127.666C398.726 124.586 396.856 121.788 394.5 119.431C392.143 117.075 389.345 115.205 386.265 113.93C383.185 112.655 379.885 111.999 376.552 112H97.3793C94.0462 111.999 90.7456 112.655 87.666 113.93C84.5864 115.205 81.7882 117.075 79.4314 119.431C77.0745 121.788 75.2051 124.586 73.93 127.666C72.6549 130.746 71.9991 134.046 72 137.379V188.138H122.759V315.034H72V365.793C71.9991 369.126 72.6549 372.427 73.93 375.506C75.2051 378.586 77.0745 381.384 79.4314 383.741C81.7882 386.098 84.5864 387.967 87.666 389.242C90.7456 390.517 94.0462 391.173 97.3793 391.172H281.125L276.05 365.793H249.655ZM351.172 137.379H376.552V162.759H351.172V137.379ZM300.414 137.379H325.793V162.759H300.414V137.379ZM249.655 137.379H275.034V162.759H249.655V137.379ZM198.897 137.379H224.276V162.759H198.897V137.379ZM148.138 137.379H173.517V162.759H148.138V137.379ZM122.759 365.793H97.3793V340.414H122.759V365.793ZM122.759 162.759H97.3793V137.379H122.759V162.759ZM173.517 365.793H148.138V340.414H173.517V365.793ZM224.276 365.793H198.897V340.414H224.276V365.793ZM217.931 285.425V217.747L268.69 251.586L217.931 285.425ZM440 321.379C440.012 325.48 438.674 329.471 436.193 332.737C432.026 329.26 426.703 327.481 421.283 327.751C415.863 328.021 410.744 330.322 406.943 334.196C404.91 332.141 402.489 330.511 399.82 329.4C397.152 328.289 394.289 327.72 391.399 327.724C388.568 327.727 385.765 328.289 383.152 329.377C380.539 330.466 378.166 332.061 376.171 334.069C374.11 332.025 371.663 330.412 368.972 329.323C366.282 328.234 363.402 327.69 360.499 327.724C354.763 327.732 349.264 330.013 345.208 334.069C343.185 332.047 340.781 330.445 338.136 329.356C335.491 328.267 332.656 327.712 329.796 327.724C326.935 327.736 324.105 328.314 321.469 329.424C318.833 330.535 316.442 332.157 314.436 334.196C310.635 330.322 305.516 328.021 300.096 327.751C294.676 327.481 289.353 329.26 285.186 332.737C282.705 329.471 281.367 325.48 281.379 321.379C281.383 316.838 283.019 312.449 285.989 309.013C288.959 305.577 293.065 303.323 297.559 302.662C295.687 300.337 294.513 297.529 294.172 294.564C293.831 291.598 294.337 288.597 295.632 285.908C296.927 283.218 298.958 280.951 301.488 279.368C304.019 277.786 306.946 276.953 309.931 276.965C311.017 276.977 312.1 277.083 313.167 277.283C313.116 277.185 313.094 277.075 313.103 276.965C313.1 274.465 313.59 271.988 314.545 269.677C315.501 267.366 316.903 265.267 318.671 263.499C320.439 261.73 322.539 260.329 324.85 259.373C327.161 258.418 329.637 257.928 332.138 257.931C337.105 257.927 341.872 259.889 345.399 263.388C346.284 260.007 348.265 257.015 351.032 254.879C353.798 252.744 357.195 251.586 360.69 251.586C364.184 251.586 367.581 252.744 370.347 254.879C373.114 257.015 375.095 260.007 375.981 263.388C379.507 259.889 384.274 257.927 389.241 257.931C391.742 257.928 394.219 258.418 396.529 259.373C398.84 260.329 400.94 261.73 402.708 263.499C404.476 265.267 405.878 267.366 406.834 269.677C407.789 271.988 408.279 274.465 408.276 276.965C408.286 277.075 408.264 277.185 408.212 277.283C409.28 277.083 410.362 276.977 411.448 276.965C414.433 276.953 417.36 277.786 419.891 279.368C422.422 280.951 424.452 283.218 425.747 285.908C427.042 288.597 427.548 291.598 427.207 294.564C426.866 297.529 425.692 300.337 423.821 302.662C428.314 303.323 432.42 305.577 435.39 309.013C438.36 312.449 439.996 316.838 440 321.379ZM369.936 349.76L366.897 454.621H354.482L351.443 349.76C351.408 348.545 351.617 347.336 352.057 346.204C352.497 345.071 353.161 344.039 354.007 343.168C354.854 342.296 355.866 341.603 356.985 341.13C358.105 340.657 359.307 340.414 360.522 340.414H360.857C362.072 340.414 363.275 340.657 364.394 341.13C365.513 341.603 366.526 342.296 367.372 343.168C368.219 344.039 368.882 345.071 369.322 346.204C369.762 347.336 369.971 348.545 369.936 349.76ZM339.056 348.883L346.207 454.621H333.793L320.731 350.629C320.571 349.351 320.684 348.053 321.063 346.822C321.442 345.591 322.079 344.455 322.931 343.489C323.783 342.522 324.831 341.749 326.005 341.218C327.179 340.688 328.453 340.414 329.741 340.414H329.995C332.297 340.414 334.513 341.289 336.195 342.861C337.876 344.434 338.9 346.586 339.056 348.883ZM308.008 348.028L325.517 454.621H323.283C320.396 454.621 317.595 453.636 315.343 451.829C313.09 450.023 311.522 447.502 310.895 444.683L290.18 351.466C289.917 350.281 289.894 349.055 290.113 347.861C290.331 346.667 290.787 345.529 291.453 344.514C292.119 343.499 292.982 342.628 293.991 341.952C294.999 341.276 296.133 340.809 297.325 340.579C298.517 340.349 299.743 340.36 300.931 340.612C302.118 340.864 303.243 341.351 304.24 342.045C305.236 342.739 306.082 343.626 306.73 344.653C307.377 345.68 307.812 346.83 308.008 348.028ZM400.648 350.629L387.586 454.621H375.172L382.325 348.883C382.481 346.586 383.503 344.433 385.185 342.861C386.867 341.289 389.083 340.414 391.385 340.414H391.639C392.927 340.414 394.2 340.689 395.374 341.219C396.548 341.749 397.596 342.523 398.448 343.489C399.3 344.455 399.937 345.591 400.316 346.822C400.696 348.053 400.809 349.351 400.648 350.629ZM431.199 351.467L410.484 444.683C409.858 447.502 408.289 450.023 406.037 451.829C403.784 453.636 400.983 454.621 398.096 454.621H395.862L413.371 348.028C413.568 346.83 414.003 345.683 414.65 344.656C415.297 343.629 416.144 342.742 417.14 342.048C418.136 341.354 419.261 340.867 420.449 340.615C421.637 340.363 422.863 340.352 424.055 340.582C425.247 340.812 426.381 341.279 427.389 341.955C428.398 342.631 429.261 343.502 429.927 344.517C430.593 345.532 431.049 346.67 431.267 347.864C431.486 349.059 431.462 350.282 431.199 351.467Z" fill="#ED254E"/>
</svg>
