<?xml version="1.0" standalone="no"?>
<!DOCTYPE svg PUBLIC "-//W3C//DTD SVG 20010904//EN"
 "http://www.w3.org/TR/2001/REC-SVG-20010904/DTD/svg10.dtd">
<svg version="1.0" xmlns="http://www.w3.org/2000/svg"
 width="700.000000pt" height="700.000000pt" viewBox="0 0 700.000000 700.000000"
 preserveAspectRatio="xMidYMid meet">
<metadata>
Created by potrace 1.14, written by Peter Selinger 2001-2017
</metadata>
<g transform="translate(0.000000,700.000000) scale(0.100000,-0.100000)"
fill="#000000" stroke="none">
<path d="M435 6749 c-146 -14 -267 -87 -349 -209 -85 -126 -84 -123 -85 -715
l-1 -520 472 1 c260 0 478 -1 483 -3 7 -2 10 -390 10 -1206 l0 -1202 -395 -2
c-217 -1 -434 -3 -483 -3 l-87 0 1 -512 c1 -553 2 -568 55 -674 53 -105 169
-202 289 -241 45 -15 217 -16 1835 -18 982 -1 1788 -1 1791 1 4 2 -2 43 -12
91 -10 49 -21 104 -24 123 -3 19 -7 42 -10 50 -2 8 -6 28 -9 44 -3 16 -11 55
-17 85 -7 31 -12 62 -12 69 0 6 -3 13 -6 13 -3 1 -116 2 -251 3 l-245 2 -3
242 -2 242 214 0 214 0 4 38 c3 20 -1 46 -8 57 -16 25 -44 110 -53 155 -3 19
-6 79 -5 133 l1 97 -106 0 c-58 1 -575 1 -1148 0 l-1043 0 0 1208 0 1207 1678
-1 c922 -1 1682 -2 1689 -3 10 -1 12 -117 12 -508 0 -280 0 -524 1 -544 l0
-36 93 3 c50 1 118 -2 150 -8 55 -11 58 -10 85 15 15 14 55 40 90 57 l62 31 0
497 0 497 468 0 c257 -1 474 1 482 3 14 3 16 63 15 525 -2 510 -2 523 -24 585
-53 153 -160 260 -312 313 l-64 22 -2690 1 c-1479 1 -2717 -2 -2750 -5z m531
-719 l0 -240 -241 2 -240 3 -1 238 -1 237 242 0 241 0 0 -240z m964 0 l0 -240
-240 0 -240 0 0 240 0 240 240 0 240 0 0 -240z m966 0 l0 -240 -241 0 -241 0
0 240 -1 240 242 0 242 0 -1 -240z m965 213 c1 -36 1 -378 0 -420 l-1 -33
-240 0 -240 0 0 240 0 240 240 0 240 0 1 -27z m968 -213 l-1 -240 -241 0 -242
0 0 240 0 240 242 0 242 0 0 -240z m965 3 l-1 -238 -241 -3 -242 -2 0 240 0
240 243 0 242 0 -1 -237z m-4829 -3855 c0 -128 -3 -237 -7 -243 -5 -8 -392
-13 -464 -6 -7 1 -10 80 -11 241 l0 240 241 0 242 0 -1 -232z m963 -10 l-3
-242 -238 -1 -237 0 0 243 0 242 240 0 240 0 -2 -242z m968 0 l0 -243 -235 1
c-130 1 -239 2 -242 3 -3 1 -5 109 -6 241 l0 240 242 0 241 0 0 -242z"/>
<path d="M2775 4099 c0 -481 3 -638 12 -635 6 3 224 146 483 320 l472 315
-464 309 c-254 170 -472 314 -483 319 -20 11 -20 9 -20 -628z"/>
<path d="M5415 4089 c-84 -21 -173 -101 -205 -184 l-10 -27 -35 26 c-65 50
-123 69 -215 70 -76 1 -92 -3 -150 -31 -76 -37 -94 -52 -143 -116 -37 -49 -68
-131 -69 -187 -1 -28 -3 -29 -40 -26 -115 11 -245 -64 -293 -169 -45 -98 -38
-206 17 -287 l18 -26 -46 -16 c-208 -71 -309 -275 -235 -473 32 -86 39 -90 97
-54 148 91 352 75 476 -37 l27 -25 38 30 c156 123 374 122 521 -2 l30 -25 28
25 c29 26 114 71 154 81 52 13 178 13 222 -1 56 -16 114 -46 153 -78 l30 -25
37 29 c141 112 354 115 499 7 l49 -38 43 33 c81 62 140 81 252 81 89 1 106 -2
160 -27 33 -15 67 -35 77 -44 24 -21 39 -7 68 60 29 65 35 168 14 239 -34 114
-116 199 -225 237 -30 10 -54 22 -53 27 0 5 11 32 24 59 35 72 34 180 -3 250
-54 105 -150 167 -266 169 -65 1 -66 1 -67 31 -3 51 -11 80 -38 133 -100 197
-354 260 -529 132 l-41 -30 -28 53 c-38 69 -72 103 -135 133 -58 29 -146 39
-208 23z"/>
<path d="M4244 2390 c-49 -25 -81 -65 -92 -117 -9 -38 -4 -68 53 -318 8 -38
17 -79 19 -90 5 -26 43 -193 62 -275 9 -36 19 -85 24 -110 11 -52 7 -36 54
-245 20 -88 52 -232 71 -320 19 -88 39 -178 45 -200 5 -22 24 -103 40 -180 31
-139 57 -202 99 -237 39 -32 96 -56 149 -60 l53 -5 -6 41 c-2 23 -7 52 -9 66
-8 43 -124 753 -131 800 -4 24 -8 47 -10 50 -2 3 -6 30 -10 60 -3 30 -10 73
-15 95 -5 22 -11 60 -14 85 -3 25 -8 56 -11 70 -4 22 -12 67 -30 180 -2 14
-11 70 -20 125 -9 55 -18 114 -21 130 -2 17 -6 41 -9 55 -3 14 -7 41 -10 60
-36 214 -45 254 -66 285 -47 68 -141 93 -215 55z"/>
<path d="M4841 2397 c-46 -18 -98 -80 -106 -126 -5 -31 10 -183 40 -406 2 -16
9 -70 15 -120 6 -49 13 -103 15 -120 3 -16 21 -156 40 -310 19 -154 37 -298
40 -320 2 -22 9 -78 15 -125 6 -47 13 -101 15 -120 3 -19 16 -127 30 -240 14
-113 28 -221 30 -240 l6 -35 102 2 c143 2 136 1 133 20 -2 10 -7 72 -11 138
-3 66 -8 131 -10 145 -2 14 -6 79 -10 145 -3 66 -8 136 -10 155 -2 19 -7 85
-10 145 -4 61 -8 128 -10 150 -2 22 -6 85 -10 140 -3 55 -7 125 -10 155 -2 30
-6 100 -10 155 -4 55 -8 116 -10 135 -2 19 -6 89 -10 155 -4 66 -8 138 -10
160 -2 22 -7 81 -10 130 -3 50 -10 106 -15 125 -10 37 -59 91 -95 105 -36 14
-99 14 -134 2z"/>
<path d="M5412 2389 c-67 -33 -100 -95 -96 -179 1 -25 5 -157 9 -295 4 -137 8
-290 10 -340 1 -49 6 -216 10 -370 4 -154 9 -314 10 -355 2 -41 6 -194 10
-340 4 -146 9 -267 11 -269 6 -7 225 -7 229 -1 3 6 11 204 20 550 3 102 7 250
10 330 8 243 26 855 30 1030 3 156 -16 203 -100 241 -53 24 -100 24 -153 -2z"/>
<path d="M6010 2394 c-42 -18 -68 -41 -86 -75 -17 -34 -21 -60 -29 -189 -3
-58 -8 -130 -10 -160 -6 -65 -12 -160 -20 -290 -3 -52 -8 -115 -10 -140 -2
-25 -7 -88 -10 -140 -3 -52 -8 -124 -10 -160 -3 -36 -7 -101 -10 -145 -3 -44
-7 -109 -10 -145 -2 -36 -7 -103 -10 -150 -3 -47 -8 -110 -10 -140 -12 -156
-18 -273 -19 -344 l-1 -80 113 0 112 -1 5 30 c3 17 10 68 15 115 6 47 13 96
15 110 4 25 10 82 20 175 3 28 8 57 10 65 2 8 7 44 10 80 3 36 8 72 10 80 2 8
7 44 10 80 3 36 8 72 10 80 2 8 7 42 10 75 3 33 7 69 9 80 2 11 7 47 11 80 4
33 9 76 11 95 2 19 6 51 9 70 2 19 7 55 10 80 5 41 19 149 30 226 2 17 7 57
10 90 3 32 8 70 10 84 3 14 7 48 11 75 3 28 7 61 10 75 2 14 7 63 10 111 5 68
3 91 -10 117 -45 88 -139 124 -226 86z"/>
<path d="M6595 2393 c-71 -37 -97 -83 -115 -208 -7 -44 -14 -87 -15 -96 -2 -9
-6 -34 -10 -55 -3 -22 -8 -50 -10 -64 -3 -14 -18 -109 -35 -210 -16 -102 -32
-198 -35 -215 -9 -55 -15 -90 -20 -130 -3 -22 -10 -62 -15 -90 -5 -27 -12 -63
-14 -80 -3 -16 -15 -88 -26 -160 -12 -71 -24 -143 -27 -160 -3 -25 -12 -76
-38 -235 -2 -14 -7 -43 -11 -65 -3 -22 -19 -116 -34 -209 -16 -94 -27 -172
-25 -175 8 -8 69 -2 112 10 53 14 115 67 138 115 15 32 36 105 51 179 2 11 56
254 120 540 63 286 117 529 120 540 2 11 15 72 29 135 15 63 29 126 31 140 5
23 18 82 30 135 3 11 7 31 10 45 3 14 11 51 18 83 27 117 -5 193 -97 232 -46
19 -94 19 -132 -2z"/>
</g>
</svg>
